<?xml version="1.0" encoding="utf-8"?>
<!-- Generator: Adobe Illustrator 24.2.3, SVG Export Plug-In . SVG Version: 6.00 Build 0)  -->
<svg version="1.1" id="Layer_1" xmlns="http://www.w3.org/2000/svg" xmlns:xlink="http://www.w3.org/1999/xlink" x="0px" y="0px"
	 viewBox="0 0 549.4 173.1" style="enable-background:new 0 0 549.4 173.1;" xml:space="preserve">
<style type="text/css">
	.st0{fill:#FFFFFF;}
	.st1{fill-rule:evenodd;clip-rule:evenodd;fill:url(#SVGID_1_);}
	.st2{fill-rule:evenodd;clip-rule:evenodd;fill:#FFFFFF;}
</style>
<g>
	<g>
		<path class="st0" d="M239,132.3c-1.4,0-2.6-1.2-2.6-2.6V91.7l-28.2-46.9c-0.5-0.8-0.5-1.8,0-2.6c0.5-0.8,1.3-1.3,2.3-1.3H221
			c0.9,0,1.7,0.5,2.2,1.2l20.9,33.6l20.7-33.6c0.5-0.8,1.3-1.2,2.2-1.2h10.6c0.9,0,1.8,0.5,2.3,1.3c0.5,0.8,0.5,1.8,0,2.6l-28.2,47
			v37.8c0,1.4-1.2,2.6-2.6,2.6H239z"/>
		<path class="st0" d="M287.8,132.3c-1.4,0-2.6-1.2-2.6-2.6V63.2c0-6.4,2.2-11.8,6.6-16c4.3-4.2,9.7-6.3,16.1-6.3H351
			c1.4,0,2.6,1.2,2.6,2.6v9.8c0,1.4-1.2,2.6-2.6,2.6h-43.1c-2.1,0-3.8,0.7-5.3,2.1c-1.5,1.4-2.2,3.1-2.2,5.1V78h47.2
			c1.4,0,2.6,1.2,2.6,2.6v9.8c0,1.4-1.2,2.6-2.6,2.6h-47.2v36.6c0,1.4-1.2,2.6-2.6,2.6H287.8z"/>
		<path class="st0" d="M387.7,132.3c-6.2,0-11.6-2.2-15.9-6.4c-4.4-4.3-6.6-9.6-6.6-15.8V43.7c0-1.4,1.2-2.6,2.6-2.6h10
			c1.4,0,2.6,1.2,2.6,2.6V110c0,2,0.7,3.7,2.1,5.1c1.4,1.4,3.2,2.1,5.2,2.1h28c2.1,0,3.8-0.7,5.2-2.1c1.4-1.4,2.1-3.1,2.1-5.1V43.7
			c0-1.4,1.2-2.6,2.6-2.6h10c1.4,0,2.6,1.2,2.6,2.6V110c0,6.2-2.2,11.6-6.6,15.8c-4.4,4.3-9.7,6.4-15.9,6.4H387.7z"/>
		<path class="st0" d="M508.8,132.3c-1.4,0-2.6-1.2-2.6-2.6V63.1c0-2-0.7-3.6-2.2-5.1c-1.5-1.5-3.2-2.2-5.2-2.2h-32.7v73.8
			c0,1.4-1.2,2.6-2.6,2.6h-10c-1.4,0-2.6-1.2-2.6-2.6V43.5c0-1.4,1.2-2.6,2.6-2.6h45.3c6.2,0,11.6,2.2,15.9,6.4
			c4.4,4.3,6.6,9.6,6.6,15.9v66.5c0,1.4-1.2,2.6-2.6,2.6H508.8z"/>
		<path class="st0" d="M536.8,132.3c-1.4,0-2.6-1.2-2.6-2.6V43.5c0-1.4,1.2-2.6,2.6-2.6h10c1.4,0,2.6,1.2,2.6,2.6v86.2
			c0,1.4-1.2,2.6-2.6,2.6H536.8z"/>
	</g>
	<g>
		<linearGradient id="SVGID_1_" gradientUnits="userSpaceOnUse" x1="86.5582" y1="-97.7935" x2="86.5582" y2="158.2163">
			<stop  offset="0" style="stop-color:#80BCFF"/>
			<stop  offset="1" style="stop-color:#0054FF"/>
		</linearGradient>
		<circle class="st1" cx="86.6" cy="86.6" r="86.6"/>
		<g>
			<path class="st2" d="M74.3,71.4c-3,4.1-6,25.8,16.1,21.5C83.2,91.8,72.8,93.3,74.3,71.4L74.3,71.4z"/>
			<path class="st2" d="M74.2,48.9c-2.2-2.3-4.3-5.2-4.3-5.2c0.5-1.8,1.4-6.8,5.2-10.5c-0.3,1.6-0.2,13.6,5.6,15.3
				c1.6,0.4,3.8-0.7,5.9-3.1c1.1-1.5,2.5-2.7,2.5-2.7c-0.8,1.8-1.9,6-0.2,8.9c-0.3-2.1-0.1-8.9,6.6-14.9c-0.6,1.5-1.1,4.5-0.5,7.1
				c0.3-2.8,1.6-8.7,5.3-11.8c-0.4,1-0.9,4.3,0.8,5.9c-0.4-1.5-0.7-4.6,4.4-10.4c-7.9-3.4-16.7-5.4-25.9-5.4
				c-13.9,0-26.8,4.4-37.3,11.8c11.6-10.6,27.1-17,44.1-17c9,0,17.6,1.8,25.4,5.1c0.8-0.2,1.1,0.3-0.2,2.8
				c-1.7,2.8-15.9,31.9-15.9,31.9c-0.8,1.6-0.8,2.7,2,5c9.5,9.5,1.4,16.7,19.3,24.8c1.1,0.6,3.3,1.4,4.1,4.1c3,9.5-6,15.7-8.7,12.4
				c0.6,2.8-6.9,5.6-7.8,1.4c-0.7-3.3-3-7.8-8.8-7.6c-10.4,0.4-25.6,9.9-29.8-7.8c-0.2,5.6,3.3,13.3,15.3,17.9
				c5.1,1.9,23.4,6.5,26.5,30.4c0.7,4,2.1,17.3,10.9,16.3c-3.8,3.3-11.6,3-16.6-1.4c-5.1-4.5-6.7-14.5-7.2-20.2
				c-0.5-6.1-2.6-11.7-8.3-15c7.6,6.7,7.4,31-6.4,27.4c6.3-2.8,8.1-13.1-5.1-30c-5.5-7-12.1-13.4-13.1-24.3
				c-0.2-3-0.8-13.3,10.3-18.8c-1.4,2-3.6,9.5-1.2,15.9c4.7,12.7,14.2,7.9,22.6,6.9c5.8-0.7,11.6,0.1,12.3,7.3
				c0.2,1.9,0.7,3.3,0.7,3.3c1.3-0.3,3.7-1.1,3.7-1.1c-0.4-2.7-0.5-5.1-0.5-5.1c6.9,9.8,13-4.9,7.6-9.7c-5.4-2.2-9.5-5.2-11.5-7
				c-4.2-3.9-2-6.6-7.2-13.1c-3.6-4.4-9-8.6-14.2-11.8c-10.7-6.7-24-10.6-34-6.5c10.8-1.7,17.6,1.4,20.2,4.1c-4.8-1.5-10-1.3-14.4,1
				c-8.4,4.5-12,17.3-2.2,20.4c2.3,0.6,5.4,0.3,5.5-2.8c0.8,1.6,0.7,8.6-7,8.9c0.9,1.1,1.5,2.6,1.5,4.2c0,2.2-1.1,4.2-2.8,5.5
				c1.4-4.8-8.2-7.5-13.1-16c-3.8-6.7-4.4-18.7,4.9-26.4c-9.4,4.3-11.7,14.3-8.4,23.4c-3.9-4-6-9.3-2.9-17.5
				C36,43.6,51.3,37,74.2,48.9L74.2,48.9z"/>
			<path class="st2" d="M21.9,84.9C26,95.4,42,104,59,117.2c14,10.9,11.6,20.3,10,23.4c-2.2,4.1,2.5-5.6-3.4-12.6
				c-3.5-4.2-15.5-12-15.5-12C30,101.9,22.1,101.8,21.9,84.9L21.9,84.9z"/>
			<path class="st2" d="M116,24.6c22.2,10.5,37.6,33.1,37.6,59.4c0,23-11.8,43.2-29.6,54.9c0.3-0.6,0.6-1.3,0.9-2.1
				c13.1-11.9,21.4-29.1,21.4-48.2c0-24.6-13.7-46-33.8-57.1C114.1,28.2,115.4,25.6,116,24.6L116,24.6z"/>
			<path class="st2" d="M73.7,145.1c32.4-32.3-73-61.9-40-96.6C17.4,59.4,17,70.9,23.6,81.4C37.6,103.7,84.3,116.5,73.7,145.1
				L73.7,145.1z"/>
			<path class="st2" d="M94.6,110.8c4.1,2.5,13.4,9.7,15.2,24c1.4,6.7,9,10.7,12.1,0.3c-2.6,2.1-5.6,2.9-6.6,0
				c-0.5-1.2-0.6-2.1-0.7-3.5c4.8,2.4,9.1-2.9,6.7-6.4c-0.8,1.2-3.2,1.9-5.5,0.8c-3.4-1.7-3.5-5.8-6.9-9.1
				C105.5,113.3,101,111.8,94.6,110.8L94.6,110.8z"/>
			<path class="st2" d="M93.1,74.7c-4.2-0.3-6.8-2.4-7.6-6.6C89.6,68.5,92.1,70.7,93.1,74.7z"/>
		</g>
	</g>
</g>
</svg>
