<svg width="179" height="53" viewBox="0 0 179 53" fill="none" xmlns="http://www.w3.org/2000/svg">
<path d="M59.1445 0.932121L36.1937 17.8472C34.4998 19.0952 32.1954 19.0952 30.5014 17.8472L7.55062 0.932121C4.41805 -1.3771 0 0.868528 0 4.77023V24.8829C0 27.8313 1.3726 30.6109 3.71064 32.3968L27.5246 50.5844C30.9653 53.2123 35.7298 53.2123 39.1706 50.5844L62.9852 32.3968C65.3232 30.6115 66.6951 27.832 66.6951 24.8835V4.77023C66.6951 0.868528 62.2771 -1.3771 59.1445 0.932121Z" fill="url(#paint0_linear)"/>
<path d="M81.5713 11.3945H90.3104L95.6297 25.1462C96.3895 27.1265 97.197 29.7669 97.197 29.7669H97.2923C97.2923 29.7669 98.1468 27.0897 98.8596 25.1462L104.131 11.3945H112.633L101.471 37.6145H92.7798L81.5713 11.3945Z" fill="white"/>
<path d="M110.282 32.3709C110.282 28.2273 113.57 26.9799 117.442 26.4668C120.95 26.0265 122.192 25.6597 122.192 24.3763C122.192 23.1664 121.424 22.3593 119.635 22.3593C117.735 22.3593 116.785 23.2024 116.602 24.7798H111.123C111.269 21.2963 113.936 18.3259 119.599 18.3259C122.411 18.3259 124.311 18.839 125.663 19.8659C127.27 21.0391 128.037 22.8731 128.037 25.2201V34.6812C128.037 36.1845 128.183 37.0283 128.695 37.3583V37.6149H122.923C122.63 37.2113 122.448 36.4778 122.302 35.5244H122.228C121.132 37.1011 119.489 38.0912 116.676 38.0912C112.949 38.0912 110.282 36.0742 110.282 32.3709ZM122.338 30.9037V28.6669C121.57 29.0704 120.475 29.3637 119.269 29.657C116.967 30.1701 116.017 30.7574 116.017 32.1872C116.017 33.6904 117.114 34.2777 118.574 34.2777C120.803 34.2777 122.338 32.9207 122.338 30.9037Z" fill="white"/>
<path d="M130.959 11.3945H136.987V37.6145H130.959V11.3945Z" fill="white"/>
<path d="M139.727 31.1604V18.8391H145.645V29.9137C145.645 31.9674 146.558 33.1039 148.457 33.1039C150.503 33.1039 151.745 31.5639 151.745 29.3264V18.8391H157.7V37.615H152.001V35.3047H151.891C150.539 37.1379 148.895 38.1648 146.302 38.1648C141.991 38.1648 139.727 35.3407 139.727 31.1604Z" fill="white"/>
<path d="M159.71 28.1902C159.71 22.5794 163.619 18.2888 169.319 18.2888C171.985 18.2888 174.104 19.1687 175.711 20.6359C177.94 22.6897 179.036 25.9534 178.999 29.7669H165.555C165.921 32.297 167.309 33.8745 169.757 33.8745C171.328 33.8745 172.351 33.1776 172.862 32.0044H178.671C178.269 33.6914 177.173 35.3049 175.529 36.442C173.958 37.5424 172.059 38.1658 169.684 38.1658C163.509 38.1651 159.71 33.8745 159.71 28.1902ZM172.971 26.2099C172.751 23.9731 171.364 22.5427 169.427 22.5427C167.162 22.5427 165.993 23.9731 165.591 26.2099H172.971Z" fill="white"/>
<defs>
<linearGradient id="paint0_linear" x1="33.3475" y1="52.555" x2="33.3475" y2="8.77105e-05" gradientUnits="userSpaceOnUse">
<stop stop-color="#6843E2"/>
<stop offset="0.1916" stop-color="#6346E3"/>
<stop offset="0.4225" stop-color="#5450E5"/>
<stop offset="0.6737" stop-color="#3C5FE8"/>
<stop offset="0.9376" stop-color="#1A75EC"/>
<stop offset="1" stop-color="#117BED"/>
</linearGradient>
</defs>
</svg>
